<svg width="626" height="599" viewBox="0 0 626 599" fill="none" xmlns="http://www.w3.org/2000/svg">
<ellipse cx="313" cy="299.5" rx="313" ry="299.5" fill="#FEB16C"/>
<g clip-path="url(#clip0_266_4106)">
<g opacity="0.25">
<path d="M408.301 496.204C419.763 487.406 426.302 475.303 426.302 462.759C426.302 456.842 424.898 451.098 422.167 445.661C422.109 445.411 422.052 445.162 421.936 444.931V409.565C421.936 406.625 420.436 403.936 417.955 402.38C415.455 400.824 412.398 400.67 409.763 401.957L379.185 416.807C379.05 416.807 378.935 416.807 378.8 416.826C368.8 415.078 358.223 415.328 348.453 417.479H348.434L323.183 402.687C320.625 401.189 317.548 401.112 314.933 402.495C312.317 403.859 310.644 406.433 310.433 409.372L307.663 447.198C307.586 447.39 307.509 447.601 307.471 447.794C305.375 452.615 304.317 457.649 304.317 462.778C304.317 472.806 308.471 482.622 316.087 490.633C312.952 497.818 306.779 504.042 299.144 511.746C294.509 516.414 289.278 521.697 283.989 527.998C275.008 539.198 271.239 557.486 274.393 573.527C261.719 569.512 253.065 561.347 249.796 550.148C246.007 537.18 250.181 522.273 260.469 512.149C260.527 512.091 260.585 512.034 260.642 511.957C269.893 501.199 267.777 491.632 263.143 486.695C257.7 480.913 246.796 479.145 236.372 487.002C220.006 499.931 213.487 533.857 222.449 559.618C227.487 574.122 241.757 598.462 280.547 598.462C282.316 598.462 283.739 597.041 283.739 595.273C283.739 594.851 283.643 594.428 283.489 594.063C283.566 594.025 283.624 594.005 283.701 593.967C283.739 593.948 283.759 593.948 283.797 593.928C284.951 595.273 286.182 596.541 287.547 597.694C288.124 598.193 288.855 598.462 289.624 598.462H418.09C419.013 598.462 419.879 598.059 420.494 597.367C425.879 591.22 426.84 583.132 422.879 577.273C420.321 573.488 415.263 570.28 408.167 571.298V496.454C408.205 496.358 408.263 496.281 408.301 496.204Z" fill="#000072"/>
<path d="M556.133 582.882L498.958 386.934H537.94C543.998 386.934 548.941 382.017 548.941 375.946V324.923C548.941 318.871 544.017 313.934 537.94 313.934H518.344L527.748 247.773C527.882 246.851 527.613 245.929 526.998 245.237C526.382 244.546 525.517 244.142 524.594 244.142H496.535C506.247 239.858 514.17 234.114 520.151 226.949C530.69 214.347 535.69 196.961 534.998 175.311C534.979 174.446 534.594 173.639 533.959 173.063C533.325 172.487 532.479 172.179 531.632 172.218C512.17 173.236 497.266 178.672 487.208 188.412L483.65 123.673C483.612 123.135 483.188 122.693 482.65 122.674C482.054 122.635 481.554 123.096 481.535 123.673L478.688 175.445C471.4 162.228 457.438 152.623 437.11 146.937C436.283 146.706 435.398 146.821 434.648 147.244C433.898 147.667 433.36 148.377 433.148 149.203C427.706 170.181 428.764 188.239 436.283 202.839C442.899 215.691 454.726 226.238 471.457 234.21C471.496 237.399 471.669 240.703 471.977 244.123H442.86C441.937 244.123 441.052 244.526 440.456 245.218C439.841 245.91 439.572 246.851 439.706 247.754L449.13 313.915H323.068C321.51 302.331 311.548 293.36 299.528 293.36H286.759V266.311H389.089C401.993 266.311 412.494 255.822 412.494 242.932V73.3793C412.494 60.489 401.993 50 389.089 50H147.542C134.638 50 124.138 60.489 124.138 73.3793V242.913C124.138 255.803 134.638 266.292 147.542 266.292H249.873V293.398H237.103C225.084 293.398 215.122 302.369 213.564 313.953H136.446C130.388 313.953 125.446 318.871 125.446 324.942V375.965C125.446 382.017 130.369 386.954 136.446 386.954H175.428L118.253 582.902C117.176 586.609 117.888 590.528 120.195 593.621C122.522 596.714 126.08 598.481 129.946 598.481C134.965 598.481 139.408 595.465 141.273 590.816L222.622 386.954H451.745L533.094 590.816C534.959 595.465 539.402 598.481 544.421 598.481C548.287 598.481 551.845 596.714 554.172 593.621C556.518 590.49 557.229 586.59 556.133 582.882Z" fill="#000072"/>
</g>
<path d="M393.897 595.273H265.431C248.277 580.596 248.719 546.939 262.296 529.976C276.701 512.783 290.836 503.312 295.624 489.845C291.009 485.388 287.528 480.24 285.47 474.631C284.066 470.865 283.316 466.869 283.316 462.739C283.316 457.61 284.47 452.692 286.605 448.12L289.432 409.564C289.701 405.665 293.99 403.417 297.374 405.396L323.722 420.841C329.222 419.515 335.068 418.805 341.126 418.805C342.434 418.805 343.741 418.843 345.03 418.901C348.569 419.074 351.992 419.515 355.338 420.149H355.357L386.993 404.781C390.512 403.071 394.589 405.626 394.589 409.526V445.949C396.262 449.023 397.512 452.289 398.224 455.689C398.705 457.975 398.955 460.338 398.955 462.72C398.955 475.322 391.974 486.676 380.8 494.686V575.294C395.32 570.318 403.205 584.65 393.897 595.273Z" fill="white"/>
<g opacity="0.6">
<path d="M268.547 535.663C256.508 550.685 254.796 578.848 266.508 595.273H265.431C248.277 580.596 248.719 546.939 262.296 529.976C276.566 512.956 290.567 503.504 295.49 490.249C296.644 490.979 297.836 491.728 299.009 492.477C299.913 493.534 300.875 494.552 301.894 495.551C297.086 508.998 282.951 518.469 268.547 535.663Z" fill="white"/>
</g>
<path d="M398.205 455.727C392.532 460.146 385.474 462.759 377.839 462.759C359.127 462.759 343.953 447.063 343.953 427.68C343.953 424.664 344.318 421.725 345.011 418.92C348.549 419.093 351.973 419.535 355.319 420.169H355.338L386.974 404.8C390.493 403.09 394.57 405.645 394.57 409.545V445.968C396.243 449.061 397.493 452.327 398.205 455.727Z" fill="#FF8500"/>
<path d="M285.451 474.65C288.374 472.633 291.894 471.442 295.721 471.442C305.721 471.442 313.817 479.529 313.817 489.519C313.817 493.438 312.567 497.049 310.452 500.008C310.452 500.008 293.009 492.189 285.451 474.65Z" fill="#FF8500"/>
<g opacity="0.6">
<path d="M394.57 409.564V416.999C394.57 413.099 390.493 410.544 386.974 412.254L363.3 423.742L373.935 429.582L355.319 427.603H355.299C351.972 426.969 348.53 426.546 344.991 426.354C343.703 426.297 342.414 426.258 341.087 426.258C335.03 426.258 329.164 426.969 323.683 428.295L305.663 429.447L316.702 424.203L297.317 412.849C293.932 410.871 289.643 413.118 289.374 417.018L286.547 455.574C284.932 459.012 283.893 462.643 283.47 466.428C283.316 465.217 283.259 463.988 283.259 462.758C283.259 457.629 284.412 452.711 286.547 448.139L289.374 409.584C289.643 405.684 293.932 403.436 297.317 405.415L323.664 420.86C329.164 419.535 335.01 418.824 341.068 418.824C342.376 418.824 343.684 418.862 344.972 418.92C348.511 419.093 351.934 419.535 355.28 420.169H355.299L386.935 404.8C390.493 403.09 394.57 405.665 394.57 409.564Z" fill="white"/>
</g>
<path d="M256.354 595.273C215.16 595.273 198.737 566.323 197.41 538.083C197.16 532.723 197.448 527.383 198.237 522.273C200.371 508.191 206.141 495.839 214.16 489.5C230.834 476.917 249.277 492.151 234.026 509.882C228.795 515.03 225.026 521.331 222.968 527.998C218.391 542.674 221.833 559.176 235.276 569.454C240.315 573.315 246.738 576.293 254.681 577.983C268.624 584.016 271.027 589.798 256.354 595.273Z" fill="white"/>
<path d="M234.007 509.882C228.776 515.03 225.007 521.331 222.949 527.998C217.199 530.111 210.968 530.111 205.333 527.536C202.564 526.269 200.179 524.463 198.217 522.292C200.352 508.211 206.121 495.858 214.141 489.519C230.815 476.936 249.257 492.17 234.007 509.882Z" fill="#FF8500"/>
<path d="M393.878 598.462H265.412C264.643 598.462 263.912 598.193 263.335 597.694C244.353 581.461 245.527 545.787 259.777 527.978C265.046 521.677 270.297 516.394 274.931 511.726C282.566 504.023 288.74 497.799 291.874 490.614C284.278 482.603 280.105 472.786 280.105 462.758C280.105 457.476 281.22 452.289 283.451 447.332L286.239 409.334C286.451 406.395 288.124 403.82 290.74 402.456C293.355 401.073 296.432 401.15 298.99 402.649L324.241 417.441C334.126 415.251 344.799 415.02 354.876 416.826L385.57 401.919C388.204 400.631 391.281 400.785 393.762 402.341C396.262 403.897 397.743 406.587 397.743 409.526V445.162C400.647 450.733 402.109 456.649 402.109 462.739C402.109 475.341 395.512 487.502 383.954 496.319V571.26C391.051 570.261 396.109 573.45 398.666 577.234C402.628 583.113 401.666 591.181 396.282 597.329C395.685 598.059 394.801 598.462 393.878 598.462ZM266.643 592.084H392.358C395.435 587.858 395.166 583.459 393.378 580.827C391.166 577.542 386.839 576.62 381.82 578.349C380.839 578.694 379.762 578.521 378.916 577.926C378.069 577.33 377.569 576.351 377.569 575.332V494.725C377.569 493.707 378.069 492.727 378.896 492.131C389.743 484.351 395.724 473.92 395.724 462.758C395.724 457.476 394.378 452.346 391.743 447.505C391.493 447.044 391.358 446.506 391.358 445.988V409.564C391.358 408.508 390.666 407.97 390.378 407.778C390.089 407.586 389.301 407.221 388.358 407.663L356.723 423.031C356.107 423.338 355.396 423.415 354.723 423.3C344.78 421.398 334.164 421.629 324.472 423.953C323.664 424.145 322.818 424.011 322.106 423.607L295.759 408.162C294.855 407.624 294.028 407.951 293.72 408.104C293.413 408.258 292.682 408.758 292.605 409.795L289.778 448.37C289.759 448.754 289.643 449.138 289.49 449.484C287.509 453.749 286.509 458.206 286.509 462.758C286.509 471.826 290.432 480.394 297.855 487.559C298.759 488.424 299.067 489.749 298.644 490.921C295.317 500.238 287.99 507.634 279.489 516.221C274.951 520.794 269.816 525.98 264.739 532.032C252.738 547.016 251.373 577.868 266.643 592.084Z" fill="#000072"/>
<g opacity="0.6">
<path d="M238.449 491.517C233.488 489.25 226.507 489.826 219.833 494.859C211.814 501.199 206.044 513.551 203.91 527.633C203.141 532.743 202.852 538.083 203.083 543.443C203.756 557.832 208.352 572.413 218.18 583.247C204.448 572.201 198.217 555.008 197.429 538.102C197.179 532.743 197.467 527.402 198.256 522.292C200.39 508.211 206.16 495.858 214.179 489.519C224.18 481.95 234.872 484.447 238.449 491.517Z" fill="white"/>
</g>
<path d="M313.952 502.697C306.682 500.565 299.586 497.145 293.394 492.151L293.374 492.131C291.99 491.017 291.778 489 292.894 487.617C294.009 486.234 296.028 486.022 297.413 487.137C297.567 487.271 297.721 487.425 297.855 487.559C302.355 492.9 308.221 497.357 314.76 500.719C315.279 500.987 315.49 501.621 315.221 502.159C314.971 502.62 314.433 502.832 313.952 502.697Z" fill="#000072"/>
<path d="M382.031 497.664C378.531 498.375 374.954 499.681 371.204 500.738C370.627 500.891 370.031 500.565 369.877 499.989C369.761 499.547 369.915 499.105 370.262 498.836L370.281 498.817C373.262 496.569 376.108 494.033 379.512 491.805L379.608 491.747C381.108 490.767 383.127 491.19 384.127 492.689C385.108 494.187 384.685 496.204 383.185 497.203C382.82 497.434 382.435 497.587 382.031 497.664Z" fill="#000072"/>
<path d="M309.548 425.855C311.625 424.376 313.817 423.012 315.99 421.725L322.51 417.921C324.048 417.018 326.029 417.537 326.914 419.074C327.818 420.611 327.299 422.589 325.76 423.473C325.51 423.627 325.222 423.742 324.933 423.819C320.01 425.087 315.183 426.124 310.509 427.757C309.952 427.949 309.336 427.661 309.144 427.104C308.99 426.623 309.163 426.124 309.548 425.855Z" fill="#000072"/>
<path d="M283.855 446.506C287.951 440.993 292.817 436.037 298.336 432.175C298.817 431.829 299.49 431.964 299.817 432.444C300.105 432.867 300.067 433.424 299.721 433.789C295.317 438.553 291.932 444.028 289.317 449.772C288.586 451.386 286.682 452.116 285.066 451.386C283.451 450.656 282.72 448.754 283.451 447.14C283.547 446.929 283.662 446.737 283.797 446.564L283.855 446.506Z" fill="#000072"/>
<path d="M383.377 433.578C388.147 436.594 392.685 440.09 396.955 443.874L396.974 443.894C398.301 445.066 398.416 447.102 397.243 448.427C396.07 449.753 394.032 449.868 392.705 448.696C392.493 448.523 392.32 448.293 392.166 448.082C389.147 443.567 385.801 439.245 382.031 435.211C381.627 434.788 381.647 434.096 382.07 433.693C382.435 433.366 382.974 433.328 383.377 433.578Z" fill="#000072"/>
<path d="M356.55 417.229C361.069 419.88 365.55 422.628 369.838 425.644C370.319 425.989 370.435 426.662 370.108 427.142C369.819 427.545 369.319 427.699 368.877 427.526C364.031 425.816 359.088 424.414 354.107 423.108C352.396 422.647 351.357 420.899 351.819 419.17C352.28 417.46 354.03 416.422 355.761 416.884C356.03 416.96 356.3 417.076 356.55 417.229Z" fill="#000072"/>
<path d="M290.855 539.505C294.413 541.214 297.817 543.462 300.74 546.324C303.702 549.148 306.086 552.625 307.779 556.391C308.625 558.273 309.336 560.233 309.856 562.25C310.086 563.249 310.375 564.267 310.452 565.285C310.586 566.303 310.74 567.322 310.76 568.359C311.01 572.451 310.837 576.504 310.317 580.481L306.183 577.945C309.74 575.544 313.625 573.43 317.933 572.105C320.106 571.49 322.414 571.068 324.799 571.087C327.183 571.106 329.703 571.625 331.972 572.835C333.106 573.431 334.145 574.237 335.068 575.159C335.953 576.12 336.76 577.157 337.318 578.348C338.511 580.673 338.876 583.305 338.626 585.802C338.357 588.319 337.395 590.72 335.953 592.756C334.51 594.793 332.606 596.426 330.51 597.597L330.491 597.617C329.202 598.327 327.587 597.886 326.876 596.598C326.164 595.311 326.606 593.698 327.895 592.987H327.914C330.914 591.335 333.01 588.434 333.337 585.264C333.683 582.094 332.203 578.944 329.433 577.542C328.068 576.812 326.452 576.447 324.722 576.427C322.991 576.408 321.202 576.735 319.433 577.234C315.875 578.329 312.413 580.154 309.163 582.363C307.952 583.189 306.298 582.882 305.471 581.653C305.086 581.096 304.952 580.462 305.029 579.847V579.828C305.49 576.139 305.702 572.432 305.356 568.801C305.182 566.995 304.913 565.208 304.606 563.422C304.317 561.635 303.894 559.887 303.336 558.177C302.202 554.758 300.452 551.53 298.163 548.668C295.855 545.806 293.047 543.27 289.932 541.08C289.528 540.792 289.432 540.235 289.72 539.85C289.99 539.428 290.47 539.313 290.855 539.505Z" fill="#000072"/>
<path d="M327.202 540.273L328.972 572.432C329.049 573.892 327.933 575.16 326.452 575.236C324.991 575.313 323.721 574.199 323.645 572.72C323.645 572.624 323.645 572.528 323.645 572.432L325.414 540.273C325.433 539.793 325.856 539.409 326.356 539.428C326.818 539.447 327.183 539.831 327.202 540.273Z" fill="#000072"/>
<path d="M346.684 536.738C348.895 536.354 350.992 536.22 353.088 536.124C355.184 536.028 357.242 536.008 359.3 536.008C361.357 536.008 363.434 536.047 365.511 536.143C367.608 536.239 369.723 536.354 371.915 536.738C372.415 536.815 372.762 537.295 372.685 537.814C372.627 538.102 372.454 538.352 372.204 538.486C370.185 539.562 368.05 540.215 365.877 540.657C363.704 541.099 361.492 541.31 359.28 541.33C357.069 541.349 354.857 541.138 352.684 540.696C350.511 540.235 348.376 539.581 346.376 538.486C345.915 538.237 345.761 537.68 345.992 537.219C346.165 536.95 346.395 536.796 346.684 536.738Z" fill="#000072"/>
<path d="M363.473 597.79L361.8 592.737C366.877 591.066 368.685 586.34 367.838 582.536C367.531 581.115 366.011 576.562 359.627 577.311C358.877 577.407 358.107 577.157 357.55 576.658C356.973 576.159 356.665 575.429 356.665 574.679V538.679H361.992V571.951C368.261 572.374 372.031 576.754 373.05 581.403C374.358 587.378 371.454 595.158 363.473 597.79Z" fill="#000072"/>
<path d="M359.954 577.253C357.646 577.522 355.376 577.945 353.242 578.675C351.088 579.405 349.049 580.5 347.165 581.941C346.78 582.248 346.203 582.171 345.915 581.768C345.665 581.441 345.684 580.98 345.934 580.673C347.511 578.713 349.453 576.927 351.665 575.505C353.876 574.084 356.28 572.989 358.665 572.086H358.684C360.069 571.567 361.607 572.259 362.146 573.642C362.665 575.025 361.973 576.562 360.588 577.1C360.377 577.177 360.165 577.234 359.954 577.253Z" fill="#000072"/>
<path d="M256.354 598.462C217.564 598.462 203.294 574.122 198.256 559.618C189.294 533.876 195.794 499.95 212.179 487.002C222.583 479.145 233.507 480.913 238.949 486.695C243.584 491.632 245.7 501.199 236.449 511.957C236.392 512.014 236.334 512.091 236.276 512.149C226.007 522.273 221.814 537.18 225.603 550.147C229.314 562.807 239.873 571.586 255.335 574.871C257.065 575.236 258.162 576.927 257.796 578.656C257.431 580.385 255.738 581.48 254.008 581.115C236.142 577.311 223.872 566.957 219.468 551.934C215.045 536.796 219.833 519.449 231.68 507.711C237.045 501.429 238.046 495.071 234.276 491.075C230.795 487.367 223.41 486.522 216.064 492.055C203.294 502.14 195.506 532.301 204.275 557.524C212.025 579.809 230.526 592.084 256.354 592.084C258.123 592.084 259.546 593.506 259.546 595.273C259.546 597.04 258.123 598.462 256.354 598.462Z" fill="#000072"/>
<g opacity="0.3">
<path d="M283.316 462.759C283.316 493.38 398.955 493.38 398.955 462.759C398.936 519.699 283.316 519.699 283.316 462.759Z" fill="#000072"/>
</g>
<g opacity="0.3">
<path d="M310.01 595.273C330.049 590.317 328.799 575.006 307.933 578.003L305.932 561.616L306.894 553.817C308.202 540.004 326.318 542.751 326.318 542.751L327.933 572.412C327.933 572.412 346.357 588.703 326.318 595.273H310.01Z" fill="#000072"/>
</g>
<g opacity="0.3">
<path d="M348.415 538.141L343.088 538.679V582.517C367.569 564.709 364.992 594.216 346.53 593.409H367.742C370.185 584.246 368.127 577.657 360.377 574.276L359.3 540.254L348.415 538.141Z" fill="#000072"/>
</g>
<g opacity="0.3">
<path d="M262.489 592.391C260.95 593.352 258.912 594.332 256.354 595.273C215.16 595.273 198.737 566.323 197.41 538.083C200.448 547.784 210.372 571.202 235.257 569.454C240.296 573.315 246.719 576.293 254.661 577.983C256.315 583.439 258.912 588.376 262.489 592.391Z" fill="#000072"/>
</g>
<g opacity="0.3">
<path d="M370.685 538.679V581.326L383.147 574.679C383.147 574.679 390.955 593.448 379.339 593.429C367.723 593.41 364.338 593.41 364.338 593.41C364.338 593.41 376.858 582.114 366.742 576.274C356.626 570.434 359.28 568.897 359.28 568.897L358.973 539.14L370.685 538.679Z" fill="#000072"/>
</g>
<path d="M340.299 488.769C339.357 488.769 338.414 488.462 337.645 487.886C327.972 480.624 328.299 467.465 328.318 466.908C328.337 466.293 328.779 465.755 329.376 465.601C336.895 463.796 339.953 459.781 339.991 459.742C340.261 459.396 340.664 459.185 341.107 459.185C341.145 459.185 341.164 459.185 341.203 459.185C341.664 459.223 342.088 459.473 342.318 459.896C345.857 466.216 352.626 467.369 352.703 467.388C353.069 467.446 353.396 467.657 353.607 467.945C353.819 468.252 353.915 468.617 353.857 468.982C351.915 480.855 345.953 486.099 342.549 488.155C341.876 488.558 341.107 488.769 340.299 488.769Z" fill="#000072"/>
<path d="M341.126 460.568C345.068 467.599 352.511 468.752 352.511 468.752C350.646 480.24 344.818 485.158 341.857 486.964C341.376 487.252 340.837 487.406 340.299 487.406C339.664 487.406 339.03 487.194 338.491 486.791C329.279 479.875 329.722 466.965 329.722 466.965C337.799 465.006 341.126 460.568 341.126 460.568ZM341.126 457.802C340.261 457.802 339.434 458.205 338.914 458.897C338.76 459.089 335.914 462.624 329.068 464.257C327.856 464.545 326.991 465.621 326.933 466.85C326.914 467.426 326.549 481.297 336.818 488.981C337.818 489.73 339.049 490.133 340.299 490.133C341.357 490.133 342.395 489.845 343.299 489.288C346.895 487.098 353.223 481.585 355.242 469.155C355.357 468.425 355.184 467.676 354.742 467.081C354.299 466.485 353.646 466.082 352.915 465.967C352.684 465.928 346.722 464.871 343.53 459.166C343.068 458.34 342.222 457.821 341.28 457.744C341.241 457.802 341.184 457.802 341.126 457.802Z" fill="#000072"/>
<path d="M328.491 467.657C327.587 467.696 326.856 467.638 326.068 467.58C325.279 467.503 324.529 467.407 323.76 467.273C322.241 467.004 320.779 466.62 319.356 466.12C320.856 466.12 322.337 466.005 323.76 465.755C324.471 465.64 325.183 465.486 325.875 465.313C326.548 465.14 327.279 464.929 327.837 464.699C328.625 464.372 329.529 464.737 329.856 465.505C330.183 466.274 329.818 467.196 329.049 467.523C328.875 467.599 328.702 467.638 328.529 467.638L328.491 467.657Z" fill="#000072"/>
<path d="M354.28 466.408C354.838 466.639 355.569 466.85 356.242 467.004C356.934 467.177 357.646 467.311 358.377 467.426C359.819 467.638 361.3 467.753 362.8 467.734C361.396 468.253 359.934 468.656 358.415 468.944C357.665 469.098 356.896 469.194 356.107 469.271C355.319 469.348 354.569 469.405 353.684 469.367H353.646C352.799 469.328 352.126 468.618 352.165 467.772C352.203 466.927 352.915 466.255 353.761 466.293C353.934 466.293 354.107 466.332 354.28 466.408Z" fill="#000072"/>
<mask id="mask0_266_4106" style="mask-type:luminance" maskUnits="userSpaceOnUse" x="329" y="460" width="24" height="28">
<path d="M341.126 460.568C341.126 460.568 337.818 465.006 329.722 466.946C329.722 466.946 329.222 481.297 340.068 487.847C340.068 487.847 349.953 484.409 352.492 468.752C352.492 468.752 345.068 467.599 341.126 460.568Z" fill="white"/>
</mask>
<g mask="url(#mask0_266_4106)">
<path d="M324.568 495.205L319.414 480.567L318.644 477.032L326.568 475.726C327.452 475.13 330.068 473.536 333.376 473.536C335.78 473.536 338.03 474.362 340.03 475.995C341.318 475.245 343.761 474.093 346.626 474.093C349.395 474.093 351.857 475.149 353.973 477.205L354.742 477.973L342.376 498.836L324.568 495.205Z" fill="#ED1B24"/>
<path d="M333.376 474.9C335.395 474.9 337.664 475.572 339.895 477.704C339.895 477.704 342.895 475.457 346.626 475.457C348.645 475.457 350.896 476.129 352.992 478.185L341.684 497.261L325.606 493.995L320.741 480.182L320.298 478.146L327.106 477.032C327.125 477.032 329.818 474.9 333.376 474.9ZM333.376 472.114C329.953 472.114 327.241 473.593 326.029 474.381L319.856 475.399L316.971 475.879L317.587 478.742L318.029 480.778L318.067 480.951L318.125 481.105L322.991 494.917L323.51 496.415L325.068 496.723L341.145 499.989L343.088 500.392L344.107 498.682L355.415 479.606L356.53 477.723L354.973 476.187C352.626 473.881 349.761 472.671 346.665 472.671C344.011 472.671 341.722 473.536 340.184 474.304C338.087 472.882 335.78 472.114 333.376 472.114Z" fill="#000072"/>
</g>
<mask id="mask1_266_4106" style="mask-type:luminance" maskUnits="userSpaceOnUse" x="329" y="460" width="24" height="28">
<path d="M341.126 460.568C341.126 460.568 337.818 465.006 329.722 466.946C329.722 466.946 329.222 481.297 340.068 487.847C340.068 487.847 349.953 484.409 352.492 468.752C352.492 468.752 345.068 467.599 341.126 460.568Z" fill="white"/>
</mask>
<g mask="url(#mask1_266_4106)">
<g opacity="0.4">
<path d="M329.722 476.648C329.722 476.648 338.434 476.532 340.145 480.24C340.145 480.24 344.665 476.033 350.376 477.935L350.799 475.303C350.799 475.303 348.492 472.921 340.511 476.187C340.511 476.187 334.26 471.595 328.645 474.477L329.722 476.648Z" fill="#000072"/>
</g>
</g>
<path d="M334.78 450.694C334.78 450.694 334.953 446.506 342.587 447.217C342.587 447.217 349.03 447.928 348.626 451.443C348.626 451.443 347.376 455.612 341.568 455.727C341.549 455.727 335.606 455.17 334.78 450.694Z" fill="#000072"/>
<path d="M304.74 448.37C304.74 448.37 315.087 438.515 326.741 447.659C326.741 447.659 327.183 441.185 318.491 439.245C316.029 438.687 313.356 438.976 311.01 440.09C308.183 441.415 304.836 443.932 304.74 448.37Z" fill="#000072"/>
<path d="M376.396 455.017C376.396 455.017 369.031 442.779 355.357 448.523C355.357 448.523 356.646 442.165 365.531 442.587C368.05 442.703 370.55 443.702 372.512 445.373C374.916 447.39 377.493 450.713 376.396 455.017Z" fill="#000072"/>
<path d="M340.991 460.876C340.972 460.876 340.953 460.876 340.934 460.876C339.934 460.837 339.145 460.011 339.164 458.993L339.337 453.864C339.376 452.865 340.203 452.058 341.222 452.097C342.222 452.135 343.011 452.961 342.991 453.979L342.818 459.108C342.78 460.107 341.972 460.876 340.991 460.876Z" fill="#000072"/>
<g opacity="0.4">
<path d="M341.049 449.599C341.184 450.214 340.318 450.925 339.126 451.193C337.934 451.462 336.857 451.193 336.703 450.579C336.568 449.964 337.434 449.253 338.626 448.984C339.837 448.715 340.914 449.004 341.049 449.599Z" fill="white"/>
</g>
<path d="M196.313 383.746L188.102 404.301L114.157 589.625C113.484 591.335 112.311 592.757 110.849 593.736C109.387 594.716 107.637 595.293 105.81 595.293C99.8101 595.293 95.483 589.549 97.1754 583.785L149.543 404.32L155.543 383.765H196.313V383.746Z" fill="#F28B0B"/>
<path d="M520.267 595.273C518.42 595.273 516.69 594.716 515.228 593.717C513.766 592.737 512.593 591.316 511.92 589.606L437.975 404.282L429.764 383.726H470.553L476.554 404.282L528.921 583.747C530.594 589.529 526.267 595.273 520.267 595.273Z" fill="#F28B0B"/>
<path d="M513.786 383.745H112.272C107.964 383.745 104.464 380.249 104.464 375.946V324.923C104.464 320.619 107.964 317.123 112.272 317.123H513.786C518.094 317.123 521.594 320.619 521.594 324.923V375.946C521.594 380.268 518.094 383.745 513.786 383.745Z" fill="#F28B0B"/>
<g opacity="0.3">
<path d="M155.524 383.745H196.313L188.102 404.301H149.523L155.524 383.745Z" fill="#000072"/>
</g>
<g opacity="0.3">
<path d="M476.534 404.301H437.956L429.764 383.745H470.553L476.534 404.301Z" fill="#000072"/>
</g>
<g opacity="0.3">
<path d="M521.594 364.362V375.965C521.594 380.268 518.113 383.765 513.786 383.765H112.272C107.964 383.765 104.464 380.288 104.464 375.965V364.362C104.464 368.665 107.945 372.162 112.272 372.162H513.786C518.094 372.142 521.594 368.665 521.594 364.362Z" fill="#000072"/>
</g>
<g opacity="0.6">
<path d="M521.594 324.942V331.051C521.594 326.748 518.113 323.251 513.786 323.251H112.272C107.964 323.251 104.464 326.748 104.464 331.051V324.942C104.464 320.639 107.945 317.142 112.272 317.142H513.786C518.094 317.142 521.594 320.639 521.594 324.942Z" fill="white"/>
</g>
<g opacity="0.6">
<path d="M502.958 331.147H331.645V338.85H502.958V331.147Z" fill="white"/>
</g>
<g opacity="0.6">
<path d="M294.413 331.147H123.099V338.85H294.413V331.147Z" fill="white"/>
</g>
<path d="M259.392 263.122H228.891V296.606H259.392V263.122Z" fill="#8F99D0"/>
<path d="M295.932 317.142H192.371C192.371 305.789 201.583 296.587 212.949 296.587H275.355C286.72 296.587 295.932 305.789 295.932 317.142Z" fill="#8F99D0"/>
<g opacity="0.6">
<path d="M294.105 308.709C290.413 305.155 285.393 302.984 279.855 302.984H217.449C211.775 302.984 206.621 305.289 202.91 308.997C200.64 311.264 198.91 314.049 197.89 317.142H192.371C192.371 311.475 194.679 306.327 198.39 302.619C202.121 298.892 207.256 296.606 212.929 296.606H275.355C283.701 296.587 290.894 301.563 294.105 308.709Z" fill="white"/>
</g>
<path d="M385.128 73.3793V242.913C385.128 254.055 376.089 263.103 364.915 263.103H123.369C112.214 263.103 103.156 254.055 103.156 242.913V73.3793C103.156 62.2371 112.214 53.189 123.369 53.189H364.915C376.089 53.189 385.128 62.2371 385.128 73.3793Z" fill="#8F99D0"/>
<path d="M104.483 229.023V236.285V245.794L105.887 250.558L111.272 258.608L118.984 263.122H366.858L378.704 256.667L383.647 248.772L385.128 242.913V229.023H104.483Z" fill="white"/>
<path d="M385.128 73.3793V228.024H103.156V73.3793C103.156 62.2371 112.214 53.189 123.369 53.189H364.915C376.089 53.189 385.128 62.2371 385.128 73.3793Z" fill="#8F99D0"/>
<g opacity="0.6">
<path d="M385.128 73.3793V81.0635C385.128 69.9214 376.089 60.8732 364.915 60.8732H123.369C112.214 60.8732 103.156 69.9214 103.156 81.0635V73.3793C103.156 62.2371 112.214 53.189 123.369 53.189H364.915C376.089 53.189 385.128 62.2371 385.128 73.3793Z" fill="white"/>
</g>
<path d="M372.358 83.2149V206.508C372.358 210.466 369.146 213.674 365.185 213.674H123.119C119.157 213.674 115.945 210.466 115.945 206.508V83.2149C115.945 79.2575 119.157 76.0493 123.119 76.0493H365.185C369.146 76.0493 372.358 79.2575 372.358 83.2149Z" fill="#FBB040"/>
<g opacity="0.6">
<path d="M372.358 205.529V212.618C372.358 216.575 369.146 219.783 365.185 219.783H123.099C119.138 219.783 115.926 216.575 115.926 212.618V205.529C115.926 209.486 119.138 212.694 123.099 212.694H365.165C369.146 212.694 372.358 209.486 372.358 205.529Z" fill="white"/>
</g>
<g opacity="0.15">
<path d="M285.913 76.0493L198.756 213.693H154.023L241.161 76.0493H285.913Z" fill="white"/>
</g>
<g opacity="0.15">
<path d="M337.203 76.0493L250.046 213.693H220.949L308.086 76.0493H337.203Z" fill="white"/>
</g>
<path d="M364.915 266.311H123.369C110.464 266.311 99.964 255.822 99.964 242.932V73.3793C99.964 60.489 110.464 50 123.369 50H364.915C377.82 50 388.32 60.489 388.32 73.3793V242.913C388.32 255.822 377.82 266.311 364.915 266.311ZM123.369 56.3779C113.984 56.3779 106.349 64.0045 106.349 73.3793V242.913C106.349 252.287 113.984 259.914 123.369 259.914H364.915C374.3 259.914 381.935 252.287 381.935 242.913V73.3793C381.935 64.0045 374.3 56.3779 364.915 56.3779H123.369Z" fill="#000072"/>
<path d="M365.185 216.345H123.119C117.695 216.345 113.272 211.926 113.272 206.509V83.2152C113.272 77.7978 117.695 73.3794 123.119 73.3794H365.185C370.608 73.3794 375.031 77.7978 375.031 83.2152V206.509C375.031 211.926 370.608 216.345 365.185 216.345ZM123.119 78.7007C120.619 78.7007 118.599 80.7178 118.599 83.2152V206.509C118.599 209.006 120.619 211.023 123.119 211.023H365.185C367.685 211.023 369.704 209.006 369.704 206.509V83.2152C369.704 80.7178 367.685 78.7007 365.185 78.7007H123.119Z" fill="#000072"/>
<path d="M385.127 232.673H103.156C101.695 232.673 100.502 231.482 100.502 230.022C100.502 228.562 101.695 227.371 103.156 227.371H385.127C386.589 227.371 387.781 228.562 387.781 230.022C387.801 231.482 386.608 232.673 385.127 232.673Z" fill="#000072"/>
<path d="M244.142 254.093C248.794 254.093 252.565 250.326 252.565 245.679C252.565 241.032 248.794 237.265 244.142 237.265C239.49 237.265 235.719 241.032 235.719 245.679C235.719 250.326 239.49 254.093 244.142 254.093Z" fill="#000072"/>
<path d="M259.392 299.776H228.891C227.122 299.776 225.699 298.354 225.699 296.587V263.103C225.699 261.336 227.122 259.914 228.891 259.914H259.392C261.162 259.914 262.585 261.336 262.585 263.103V296.587C262.585 298.354 261.162 299.776 259.392 299.776ZM232.084 293.398H256.2V266.311H232.084V293.398Z" fill="#000072"/>
<path d="M295.932 320.331H192.371C190.602 320.331 189.179 318.91 189.179 317.142C189.179 304.06 199.833 293.398 212.949 293.398H275.355C288.451 293.398 299.125 304.041 299.125 317.142C299.125 318.91 297.701 320.331 295.932 320.331ZM195.852 313.953H292.451C290.951 305.904 283.855 299.776 275.374 299.776H212.929C204.448 299.776 197.352 305.904 195.852 313.953Z" fill="#000072"/>
<g opacity="0.3">
<path d="M259.392 263.122H228.891V277.472H259.392V263.122Z" fill="#000072"/>
</g>
<path d="M513.786 386.934H112.272C106.214 386.934 101.272 382.016 101.272 375.946V324.923C101.272 318.871 106.195 313.934 112.272 313.934H513.786C519.844 313.934 524.786 318.852 524.786 324.923V375.946C524.786 382.016 519.844 386.934 513.786 386.934ZM112.272 320.331C109.734 320.331 107.657 322.406 107.657 324.942V375.965C107.657 378.501 109.734 380.576 112.272 380.576H513.786C516.324 380.576 518.401 378.501 518.401 375.965V324.942C518.401 322.406 516.324 320.331 513.786 320.331H112.272Z" fill="#000072"/>
<path d="M294.413 374.179H123.099C121.33 374.179 119.907 372.757 119.907 370.99V331.128C119.907 329.36 121.33 327.939 123.099 327.939H294.413C296.182 327.939 297.605 329.36 297.605 331.128V370.99C297.605 372.757 296.182 374.179 294.413 374.179ZM126.292 367.82H291.22V334.336H126.292V367.82Z" fill="#000072"/>
<path d="M203.967 357.542C207.887 357.542 211.064 354.368 211.064 350.453C211.064 346.538 207.887 343.365 203.967 343.365C200.048 343.365 196.871 346.538 196.871 350.453C196.871 354.368 200.048 357.542 203.967 357.542Z" fill="#000072"/>
<path d="M502.958 374.179H331.645C329.876 374.179 328.452 372.757 328.452 370.99V331.128C328.452 329.36 329.876 327.939 331.645 327.939H502.958C504.728 327.939 506.151 329.36 506.151 331.128V370.99C506.151 372.757 504.728 374.179 502.958 374.179ZM334.837 367.82H499.766V334.336H334.837V367.82Z" fill="#000072"/>
<path d="M412.513 357.542C416.432 357.542 419.609 354.368 419.609 350.453C419.609 346.538 416.432 343.365 412.513 343.365C408.594 343.365 405.417 346.538 405.417 350.453C405.417 354.368 408.594 357.542 412.513 357.542Z" fill="#000072"/>
<path d="M105.791 598.462C101.926 598.462 98.3678 596.695 96.0408 593.602C93.7138 590.509 93.0022 586.609 94.0984 582.882L152.466 382.862C152.966 381.171 154.735 380.192 156.427 380.691C158.12 381.19 159.101 382.958 158.601 384.648L100.214 584.669C99.6947 586.436 100.041 588.3 101.137 589.779C102.253 591.258 103.945 592.103 105.772 592.103C108.157 592.103 110.272 590.663 111.157 588.453L193.313 382.593C193.967 380.96 195.813 380.153 197.467 380.806C199.102 381.459 199.91 383.323 199.256 384.956L117.118 590.797C115.253 595.446 110.81 598.462 105.791 598.462Z" fill="#000072"/>
<path d="M520.267 598.462C515.247 598.462 510.805 595.446 508.939 590.797L426.783 384.936C426.129 383.303 426.937 381.44 428.571 380.787C430.206 380.134 432.071 380.941 432.725 382.573L514.882 588.434C515.767 590.643 517.882 592.084 520.267 592.084C522.113 592.084 523.805 591.239 524.901 589.76C526.017 588.28 526.344 586.436 525.825 584.669L467.476 384.648C466.976 382.958 467.957 381.19 469.65 380.691C471.342 380.191 473.111 381.171 473.611 382.862L531.979 582.882C533.056 586.59 532.344 590.509 530.036 593.602C527.69 596.695 524.151 598.462 520.267 598.462Z" fill="#000072"/>
<path d="M500.439 247.35L490.516 317.142H428.648L427.571 309.516L418.725 247.35H500.439Z" fill="#FF0303"/>
<g opacity="0.6">
<path d="M500.227 248.753L427.571 254.305L436.418 316.47L436.514 317.142H428.648L427.571 309.516L418.725 247.35H500.439L500.227 248.753Z" fill="white"/>
</g>
<path d="M490.496 320.331H428.648C427.052 320.331 425.706 319.159 425.494 317.584L415.571 247.792C415.436 246.87 415.705 245.948 416.321 245.256C416.936 244.565 417.802 244.161 418.725 244.161H500.439C501.362 244.161 502.247 244.565 502.843 245.256C503.458 245.948 503.728 246.889 503.593 247.792L493.67 317.584C493.439 319.159 492.093 320.331 490.496 320.331ZM431.417 313.953H487.727L496.747 250.539H422.398L431.417 313.953Z" fill="#000072"/>
<path d="M451.226 232.558C465.438 191.717 456.168 162.382 412.109 150.049C401.224 192.062 417.629 217.516 451.226 232.558Z" fill="#11E000"/>
<g opacity="0.3">
<path d="M457.341 203.07C457.034 212.06 454.918 221.915 451.207 232.558C418.802 218.054 402.378 193.849 411.032 154.429C409.551 184.666 425.59 204.242 453.399 216.69C455.034 211.984 456.361 207.45 457.341 203.07Z" fill="#000072"/>
</g>
<g opacity="0.6">
<path d="M457.284 204.588C455.957 182.169 442.091 165.878 412.09 157.483C410.224 164.726 409.147 171.488 408.84 177.77C408.417 169.432 409.455 160.211 412.09 150.01C445.322 159.327 458.784 178.307 457.284 204.588Z" fill="white"/>
</g>
<path d="M451.226 235.747C450.784 235.747 450.341 235.651 449.918 235.459C431.802 227.352 419.09 216.402 412.148 202.878C404.628 188.278 403.57 170.22 409.013 149.242C409.224 148.416 409.763 147.705 410.513 147.282C411.263 146.86 412.148 146.745 412.975 146.975C433.725 152.796 447.88 162.67 455.014 176.329C462.649 190.948 462.399 210.216 454.245 233.615C453.957 234.46 453.322 235.132 452.495 235.497C452.091 235.651 451.649 235.747 451.226 235.747ZM414.398 154.045C406.474 188.624 417.917 212.906 449.322 228.159C455.764 208.026 455.784 191.582 449.341 179.268C443.399 167.915 431.668 159.424 414.398 154.045Z" fill="#000072"/>
<path d="M448.13 233.346C445.976 222.761 443.302 212.272 439.783 202.032C436.264 191.793 431.879 181.804 426.225 172.467C432.764 181.208 438.187 190.852 442.745 200.841C447.322 210.85 451.072 221.243 454.303 231.77C454.822 233.461 453.88 235.247 452.187 235.766C450.495 236.285 448.706 235.344 448.187 233.653C448.168 233.538 448.149 233.442 448.13 233.346Z" fill="#000072"/>
<path d="M453.649 191.294L457.38 123.692C457.418 123.096 457.918 122.654 458.495 122.693C459.034 122.731 459.476 123.173 459.495 123.692L463.226 191.294C463.38 193.945 461.342 196.192 458.707 196.346C456.053 196.5 453.803 194.463 453.649 191.832C453.649 191.64 453.649 191.467 453.649 191.294Z" fill="#000072"/>
<path d="M451.36 247.35C446.456 204.395 461.957 177.808 507.67 175.426C509.035 218.822 487.419 240.05 451.36 247.35Z" fill="#11E000"/>
<g opacity="0.3">
<path d="M451.341 247.35C450.399 239.051 450.207 231.367 450.861 224.374C450.976 226.026 451.149 227.717 451.341 229.427C482.035 223.222 502.266 206.931 506.766 175.483C507.055 175.464 507.362 175.445 507.651 175.426C509.036 218.822 487.419 240.05 451.341 247.35Z" fill="#000072"/>
</g>
<g opacity="0.6">
<path d="M507.689 182.265C466.746 185.396 451.303 208.987 453.649 246.87C452.899 247.043 452.13 247.197 451.36 247.35C446.456 204.395 461.976 177.789 507.67 175.426C507.728 177.769 507.747 180.036 507.689 182.265Z" fill="white"/>
</g>
<path d="M451.36 250.539C450.687 250.539 450.033 250.328 449.476 249.924C448.745 249.406 448.283 248.599 448.187 247.715C445.379 223.106 449.36 204.241 460.034 191.659C469.996 179.902 485.977 173.37 507.497 172.256C508.362 172.217 509.189 172.506 509.824 173.101C510.459 173.677 510.824 174.484 510.862 175.349C511.555 197.018 506.555 214.385 496.016 226.987C486.265 238.648 471.457 246.562 451.995 250.481C451.784 250.52 451.572 250.539 451.36 250.539ZM504.535 178.826C486.515 180.305 473.188 185.991 464.899 195.77C455.918 206.374 452.303 222.415 454.168 243.469C488.15 235.478 504.67 214.289 504.535 178.826Z" fill="#000072"/>
<path d="M448.514 245.91C453.995 236.343 459.938 227.026 466.592 218.266C473.246 209.505 480.65 201.303 488.958 194.214C481.381 202.09 474.919 210.869 469.226 220.071C463.534 229.292 458.63 238.936 454.207 248.791C453.476 250.405 451.591 251.116 449.976 250.405C448.36 249.675 447.649 247.792 448.36 246.178C448.399 246.082 448.457 245.986 448.514 245.91Z" fill="#000072"/>
<g opacity="0.3">
<path d="M500.439 247.35L490.516 317.142H428.667L427.59 309.516C459.226 301.044 485.823 289.095 494.208 247.35H500.439Z" fill="#000072"/>
</g>
<path d="M30.0001 594.121C41.7889 592.334 53.5778 591.911 65.3859 591.681C77.1747 591.431 88.9636 591.566 100.772 591.7L118.465 591.815H136.157H171.543H313.067H454.591H525.344H543.037L551.883 591.739L560.729 591.604C566.634 591.527 572.518 591.642 578.422 591.931C584.326 592.296 590.211 592.834 596.115 594.14C596.75 594.274 597.154 594.908 597.019 595.542C596.923 596.003 596.558 596.349 596.115 596.445C590.211 597.751 584.326 598.27 578.422 598.654C572.518 598.943 566.634 599.058 560.729 598.981L551.883 598.846L543.037 598.77H525.344H454.591H313.067H171.505H136.119H118.426L100.733 598.885C88.9444 599.019 77.1555 599.154 65.3474 598.904C53.5585 598.693 41.7697 598.251 29.9616 596.464C29.327 596.368 28.8846 595.773 28.9808 595.139C29.0962 594.582 29.5 594.197 30.0001 594.121Z" fill="#000072"/>
<path d="M202 117.09L208.603 137.412L209.164 139.139H210.981H232.348L215.061 151.699L213.592 152.766L214.153 154.494L220.756 174.816L203.469 162.256L202 161.188L200.531 162.256L183.244 174.816L189.847 154.494L190.408 152.766L188.939 151.699L171.652 139.139H193.019H194.836L195.397 137.412L202 117.09Z" stroke="#297C0B" stroke-width="5"/>
<path d="M262.689 172.5L293 120L323.311 172.5H262.689Z" stroke="#640CBD" stroke-width="5"/>
</g>
<defs>
<clipPath id="clip0_266_4106">
<rect width="568" height="549" fill="white" transform="translate(29 50)"/>
</clipPath>
</defs>
</svg>
